PathFileType  4	(X/Y/Z) C:\Users\wagnerel85475\Documents\Thesis\opencap-core\Data\3375ffbc-daeb-4a43-b4f7-ac9899cd4c71\MarkerData\PreAugmentation
DataRate	CameraRate	NumFrames	NumMarkers	Units	OrigDataRate	OrigDataStartFrame	OrigNumFrames
60.0	60.0	17	20	m	60.0	337	897
Frame#	Time	Neck			RShoulder			RElbow			RWrist			LShoulder			LElbow			LWrist			midHip			RHip			RKnee			RAnkle			LHip			LKnee			LAnkle			LBigToe			LSmallToe			LHeel			RBigToe			RSmallToe			RHeel			
		X1	Y1	Z1	X2	Y2	Z2	X3	Y3	Z3	X4	Y4	Z4	X5	Y5	Z5	X6	Y6	Z6	X7	Y7	Z7	X8	Y8	Z8	X9	Y9	Z9	X10	Y10	Z10	X11	Y11	Z11	X12	Y12	Z12	X13	Y13	Z13	X14	Y14	Z14	X15	Y15	Z15	X16	Y16	Z16	X17	Y17	Z17	X18	Y18	Z18	X19	Y19	Z19	X20	Y20	Z20	

337	5.6000000	0.8956400	0.8089100	-0.0946700	0.9135600	0.8192200	0.0664300	1.1219400	0.6722800	0.1566400	1.4395500	0.7078600	0.0490200	0.9205800	0.8101100	-0.2641600	1.2124100	0.6205400	-0.2781700	1.4755800	0.6895300	-0.1390600	0.4427000	0.4231600	-0.1025300	0.4507100	0.4327900	0.0201400	0.8463500	0.2661500	0.1246600	0.6116100	-0.1862300	0.0742100	0.4436200	0.4312200	-0.2239900	0.8385000	0.2647100	-0.3271700	0.6254900	-0.1945300	-0.2916500	0.8311600	-0.2269600	-0.3519000	0.7883800	-0.2336900	-0.3762700	0.5437600	-0.2457700	-0.2892700	0.7769000	-0.2376100	0.2002600	0.7481500	-0.2310500	0.2162400	0.5915700	-0.2186400	0.0455200
338	5.6166667	0.8952400	0.8310300	-0.0949900	0.8967600	0.8397700	0.0693500	1.1165700	0.6994700	0.1548500	1.4436900	0.7347600	0.0425000	0.9154300	0.8329200	-0.2666700	1.2033800	0.6461800	-0.2790400	1.4807600	0.7032300	-0.1397800	0.4359600	0.4476900	-0.1003100	0.4464400	0.4546600	0.0205900	0.8509100	0.2725600	0.1222600	0.6057200	-0.1864200	0.0721700	0.4374800	0.4493300	-0.2215700	0.8378000	0.2709100	-0.3230800	0.6205300	-0.1942500	-0.2942600	0.8311200	-0.2266000	-0.3518000	0.7882000	-0.2337300	-0.3761600	0.5382900	-0.2474600	-0.2916000	0.7752800	-0.2373700	0.2012200	0.7481300	-0.2310900	0.2160900	0.5853500	-0.2170200	0.0436900
339	5.6333333	0.8897200	0.8586300	-0.0966000	0.8959100	0.8681800	0.0658800	1.1437400	0.7172400	0.1606200	1.4690800	0.7524100	0.0292300	0.9251100	0.8557600	-0.2706900	1.1440100	0.6560200	-0.2512000	1.4780600	0.7206800	-0.1395800	0.4469600	0.4644800	-0.1048200	0.4484100	0.4680400	0.0156100	0.8408400	0.2727400	0.1229200	0.6008200	-0.1899000	0.0748900	0.4493500	0.4727900	-0.2265000	0.8318700	0.2776000	-0.3194500	0.6204500	-0.1942800	-0.2941900	0.8259800	-0.2267000	-0.3494600	0.7883600	-0.2336800	-0.3762300	0.5383900	-0.2476800	-0.2914700	0.7767400	-0.2376300	0.2002100	0.7424700	-0.2331200	0.2146200	0.5855400	-0.2195600	0.0443800
340	5.6500000	0.8892500	0.8888000	-0.0969300	0.8932500	0.8917600	0.0657200	1.1150200	0.7477900	0.1508000	1.4561500	0.7801500	0.0294500	0.9194400	0.8808300	-0.2733100	1.1358700	0.6761200	-0.2519000	1.4658300	0.7368200	-0.1426800	0.4582100	0.4901000	-0.1009600	0.4640900	0.4940700	0.0268400	0.8358000	0.2768600	0.1212600	0.6007600	-0.1919000	0.0754400	0.4487000	0.4885900	-0.2265300	0.8167300	0.2802800	-0.3176400	0.6205800	-0.1942400	-0.2942700	0.8261300	-0.2283600	-0.3496900	0.7881100	-0.2360800	-0.3722300	0.5437200	-0.2456400	-0.2894000	0.7753700	-0.2357200	0.2008000	0.7424500	-0.2330400	0.2144700	0.5910800	-0.2171200	0.0470000
341	5.6666667	0.8886500	0.9115200	-0.0965100	0.8950500	0.9152700	0.0659700	1.1192500	0.7700700	0.1486200	1.4502800	0.8050800	0.0287200	0.9139000	0.9098800	-0.2755800	1.1858500	0.7125000	-0.2875500	1.4793200	0.7829800	-0.1455300	0.4460100	0.5046900	-0.1045200	0.4416600	0.5070500	0.0184000	0.8352800	0.2794300	0.1212300	0.6008200	-0.1895200	0.0756300	0.4436300	0.5120700	-0.2240800	0.8069000	0.2775000	-0.3128200	0.6206900	-0.1923300	-0.2945900	0.8210100	-0.2325500	-0.3473600	0.7835600	-0.2378300	-0.3745400	0.5438100	-0.2459100	-0.2892600	0.7811300	-0.2316900	0.1976900	0.7427000	-0.2312800	0.2142200	0.5806000	-0.2216700	0.0479800
342	5.6833333	0.8929600	0.9355100	-0.0994300	0.8947900	0.9434300	0.0651600	1.1156300	0.7883800	0.1509900	1.4590200	0.8314100	0.0277000	0.9086500	0.9395500	-0.2737100	1.1645300	0.7397400	-0.2992000	1.4605200	0.8042400	-0.1569000	0.4569700	0.5233800	-0.1056200	0.4435900	0.5250200	0.0160200	0.8303100	0.2854000	0.1192900	0.6066500	-0.1895400	0.0779900	0.4616800	0.5347100	-0.2264100	0.7967300	0.2773700	-0.3136300	0.6207200	-0.1922400	-0.2946600	0.8210200	-0.2321000	-0.3472200	0.7833300	-0.2377800	-0.3744400	0.5383400	-0.2475300	-0.2916000	0.7746000	-0.2325100	0.1958700	0.7356800	-0.2314900	0.2086300	0.5810300	-0.2236800	0.0528200
343	5.7000000	0.8878000	0.9612000	-0.0967000	0.8848000	0.9697400	0.0666800	1.0834900	0.8153500	0.1395600	1.4785100	0.8679400	-0.0149800	0.9092200	0.9628800	-0.2779400	1.1589900	0.7634000	-0.2907200	1.4537500	0.8135500	-0.1587900	0.4450700	0.5446200	-0.1046900	0.4385800	0.5460600	0.0188700	0.8242500	0.2929800	0.1177900	0.6068700	-0.1911800	0.0782200	0.4531400	0.5515800	-0.2245900	0.7871900	0.2748300	-0.3175900	0.6203300	-0.1901300	-0.2942400	0.8256900	-0.2307200	-0.3451600	0.7880400	-0.2338600	-0.3719500	0.5384500	-0.2417400	-0.2904100	0.7698200	-0.2371900	0.1948400	0.7356700	-0.2354200	0.2087900	0.5778200	-0.2265900	0.0565500
344	5.7166667	0.8919900	0.9894700	-0.0996100	0.8827300	0.9977400	0.0662200	1.1138000	0.8462500	0.1467400	1.4589400	0.8790000	0.0234400	0.9120300	0.9840900	-0.2805500	1.1472400	0.7866600	-0.2887700	1.4564300	0.8310800	-0.1578700	0.4503700	0.5621900	-0.1031500	0.4481000	0.5629900	0.0182700	0.8135700	0.2980700	0.1145700	0.6075000	-0.1910700	0.0827700	0.4472300	0.5681800	-0.2219600	0.7772600	0.2769200	-0.3187500	0.6203900	-0.1900600	-0.2942900	0.8255500	-0.2282400	-0.3446900	0.7880300	-0.2315400	-0.3758100	0.5436600	-0.2416800	-0.2886800	0.7687800	-0.2361500	0.1946100	0.7300300	-0.2336100	0.2070000	0.5722600	-0.2290400	0.0592500
345	5.7333333	0.8819500	1.0170300	-0.0989800	0.8827200	1.0198800	0.0669900	1.1426100	0.8699500	0.1421300	1.5173600	0.9136900	-0.0151500	0.9017400	1.0108600	-0.2806300	1.1671700	0.8240200	-0.3046300	1.4478600	0.8719100	-0.1596100	0.4562200	0.5840300	-0.1006400	0.4548300	0.5860100	0.0205400	0.8081500	0.3006500	0.1119800	0.6031200	-0.1932900	0.0861900	0.4515300	0.5847900	-0.2201700	0.7769000	0.2867800	-0.3180600	0.6200800	-0.1878800	-0.2938600	0.8254400	-0.2286200	-0.3448200	0.7882800	-0.2335800	-0.3762200	0.5438600	-0.2399100	-0.2881400	0.7598800	-0.2392700	0.1953900	0.7301900	-0.2357200	0.2068000	0.5706300	-0.2317700	0.0629100
346	5.7500000	0.8862400	1.0478500	-0.0973200	0.8783400	1.0406500	0.0685700	1.2357800	0.8955200	0.1787200	1.4026500	0.9254700	-0.0004600	0.9103400	1.0416000	-0.2808600	1.1660900	0.8524200	-0.3053300	1.4522800	0.8967600	-0.1648300	0.4561400	0.6004500	-0.0964900	0.4552200	0.5971500	0.0248000	0.8031100	0.3047800	0.1102700	0.5996900	-0.2003300	0.0899600	0.4454000	0.6098300	-0.2175200	0.7679800	0.2851900	-0.3197000	0.6253900	-0.1840300	-0.2921600	0.8160200	-0.2316100	-0.3490500	0.7831900	-0.2332700	-0.3780500	0.5492300	-0.2378000	-0.2860700	0.7645800	-0.2363500	0.1967900	0.7313300	-0.2354100	0.2108000	0.5712400	-0.2339100	0.0631900
347	5.7666667	0.8804400	1.0696500	-0.1034700	0.8732400	1.0688700	0.0673600	1.2123400	0.9170700	0.1667900	1.4169400	0.9457400	0.0117200	0.9095600	1.0683400	-0.2852800	1.1163800	0.8704500	-0.2887300	1.4283900	0.9003600	-0.1600000	0.4675900	0.6211900	-0.0963400	0.4749500	0.6221300	0.0260800	0.8028300	0.3050300	0.1099500	0.5944600	-0.2044700	0.0965400	0.4624200	0.6212900	-0.2157200	0.7665600	0.2984500	-0.3179200	0.6149300	-0.1855800	-0.2924500	0.8209000	-0.2323400	-0.3473400	0.7832100	-0.2355800	-0.3741800	0.5437400	-0.2437000	-0.2888800	0.7761800	-0.2344200	0.1952800	0.7314500	-0.2354400	0.2110000	0.5714500	-0.2370200	0.0675700
348	5.7833333	0.8801600	1.0915600	-0.1039500	0.8723500	1.0954800	0.0667300	1.1639600	0.9364600	0.1460500	1.5069400	0.9848900	-0.0318200	0.9038300	1.0942700	-0.2878800	1.1188700	0.8829600	-0.2867400	1.4224700	0.9316700	-0.1680600	0.4795600	0.6370800	-0.0927400	0.4844500	0.6376200	0.0304000	0.7929500	0.3106300	0.1109600	0.5937900	-0.1987100	0.0964800	0.4796300	0.6379200	-0.2133400	0.7559500	0.3003000	-0.3141000	0.6147400	-0.1835300	-0.2921700	0.8209400	-0.2319800	-0.3471600	0.7879700	-0.2359000	-0.3722100	0.5439100	-0.2377300	-0.2879900	0.7646800	-0.2364300	0.1967900	0.7312500	-0.2334800	0.2111900	0.5801300	-0.2308200	0.0664500
349	5.8000000	0.8599600	1.1148900	-0.1075800	0.8627900	1.1236300	0.0679200	1.1329900	0.9603500	0.1387300	1.5083800	1.0008600	-0.0259700	0.8984300	1.1159800	-0.2857500	1.1394900	0.9198400	-0.3097600	1.4233400	0.9582000	-0.1744400	0.4792200	0.6533300	-0.0924600	0.4864400	0.6509600	0.0302400	0.7913700	0.3172100	0.1066900	0.5914400	-0.2062500	0.1045200	0.4786900	0.6558000	-0.2138600	0.7464300	0.3056700	-0.3097900	0.6150000	-0.1857600	-0.2924400	0.8255800	-0.2268100	-0.3451700	0.7877300	-0.2340800	-0.3676300	0.5381700	-0.2437700	-0.2862400	0.7466400	-0.2434900	0.2028200	0.7314600	-0.2358500	0.2110400	0.5712700	-0.2397000	0.0756200
350	5.8166667	0.8543800	1.1430400	-0.1100400	0.8569400	1.1415200	0.0697700	1.1501600	0.9866100	0.1413400	1.5090100	1.0259600	-0.0305300	0.9025900	1.1403600	-0.2881000	1.1101100	0.9321900	-0.2902200	1.4139300	0.9738800	-0.1717000	0.4788400	0.6680100	-0.0928100	0.4843300	0.6706200	0.0302500	0.7805100	0.3166300	0.1036000	0.5949500	-0.1942500	0.1053500	0.4842600	0.6668900	-0.2113100	0.7454500	0.3120600	-0.3056200	0.6147200	-0.1835900	-0.2921600	0.8205600	-0.2301300	-0.3425600	0.7825700	-0.2337100	-0.3694200	0.5438100	-0.2396700	-0.2883000	0.7707400	-0.2371800	0.1979600	0.7374900	-0.2341300	0.2124000	0.5766400	-0.2306100	0.0740500
351	5.8333333	0.8443300	1.1690500	-0.1096000	0.8462400	1.1675000	0.0666600	1.0957400	1.0305700	0.1290900	1.4123700	1.0416300	0.0101100	0.8976000	1.1670500	-0.2903000	1.0971300	0.9516200	-0.2991500	1.4043000	0.9932700	-0.1715700	0.4905600	0.6791400	-0.0930100	0.4964900	0.6808100	0.0298000	0.7594000	0.3138400	0.1001100	0.5946400	-0.1924600	0.1048700	0.4892200	0.6803700	-0.2097200	0.7408300	0.3128100	-0.3031600	0.6141600	-0.1772100	-0.2910700	0.8253600	-0.2285600	-0.3448000	0.7830800	-0.2334000	-0.3737900	0.5496900	-0.2340400	-0.2851900	0.7766900	-0.2287900	0.1948900	0.7488200	-0.2248700	0.2104600	0.5815900	-0.2225800	0.0755300
352	5.8500000	0.8440700	1.1855700	-0.1099700	0.8559000	1.1934700	0.0697100	1.1931500	1.0274700	0.1644800	1.3692800	1.0655100	-0.0147200	0.8916800	1.1837600	-0.2928200	1.0894900	0.9711800	-0.3021000	1.4056200	1.0209100	-0.1711100	0.5009400	0.6980100	-0.0933800	0.4994900	0.6988700	0.0272900	0.7584700	0.3156400	0.0962800	0.5947300	-0.1927700	0.1051300	0.4957300	0.6952700	-0.2114100	0.7395400	0.3187800	-0.2985000	0.6143100	-0.1812900	-0.2911300	0.8206900	-0.2318000	-0.3464000	0.7780200	-0.2331300	-0.3756100	0.5496400	-0.2338500	-0.2853500	0.7809600	-0.2272400	0.1966400	0.7493700	-0.2260000	0.2148500	0.5753300	-0.2279600	0.0780800
353	5.8666667	0.8434700	1.2117400	-0.1097300	0.8519900	1.2153900	0.0683700	1.1924200	1.0451800	0.1605500	1.3195800	1.0866800	-0.0235800	0.8722800	1.2120200	-0.2974100	1.0887600	0.9962100	-0.3028800	1.3885400	1.0303500	-0.1793500	0.5019300	0.7091100	-0.0936400	0.5175600	0.7119000	0.0240500	0.7527600	0.3187400	0.0941900	0.5943600	-0.1950400	0.1045800	0.4946000	0.7075700	-0.2122800	0.7399700	0.3245200	-0.2937400	0.6141500	-0.1771700	-0.2910300	0.8206600	-0.2322300	-0.3465700	0.7731100	-0.2351000	-0.3736000	0.5493100	-0.2317800	-0.2855600	0.7817400	-0.2281100	0.1969100	0.7488900	-0.2275700	0.2154700	0.5804000	-0.2285900	0.0751200
